<?xml version="1.0" encoding="UTF-8" standalone="no"?>
<svg
   version="1.1"
   viewBox="0 0 48 48"
   width="48"
   height="48"
   id="svg2"
   xmlns="http://www.w3.org/2000/svg"
   xmlns:svg="http://www.w3.org/2000/svg">
  <defs
     id="defs2" />
  <path
     d="m 41.9159,14.760447 v 21.36229 c 0,1.0138 -0.8264,1.8414 -1.8389,1.8414 -1.060069,0 -1.8716,-0.900734 -1.8716,-1.8414 v -21.39517 c 0,-3.28271 -2.605,-6.0173903 -5.916,-6.0447903 -3.1578,-0.03289 -5.7956,2.4223003 -5.9762,5.5241603 v 21.5486 c 0,0.83777 -0.171672,3.103181 -1.8389,5.3433 -0.0602,0.0932 -0.1204,0.1535 -0.186,0.2466 -0.2463,0.3069 -0.5199,0.6138 -0.799,0.8878 -1.7458,1.7483 -4.1976,2.8224 -6.86829,2.8224 C 11.2906,45.022737 7,40.605637 7,35.295237 v -21.42808 c 0,-1.01386 0.9258149,-1.84139 1.9382669,-1.84139 1.0603778,0 1.7722231,0.901012 1.7722231,1.84139 v 21.42258 c 0,3.2827 2.60501,6.0174 5.916,6.0448 3.15771,0.0328 5.79561,-2.4223 6.00901,-5.5242 v -21.23622 -0.36718 -0.09317 C 22.805182,9.5843208 26.716448,5 32.3277,5 c 5.3249,0.027402 9.5882,4.4500167 9.5882,9.760447 z"
     fill="white"
     id="path11"
     style="fill:#000d0c;fill-opacity:1" />
  <path
     d="m 22.626237,14.206997 0.0078,21.616752 c -0.2135,3.1018 -2.84975,5.557 -6.04032,5.5241 -3.27815,-0.0329 -5.885356,-2.785538 -5.88475,-6.068237 l 0.0039,-21.189279 c 0.0602,2.88261 2.263384,5.273604 5.054464,5.706604 v 13.2295 c -1.01245,0.3397 -1.71843,1.2878 -1.71843,2.4223 0,1.4139 1.16569,2.5757 2.57217,2.5757 1.41201,0 2.57221,-1.1344 2.57221,-2.5757 0,-1.1071 -0.706,-2.0551 -1.7185,-2.4223 v -13.2021 c 4.257974,-0.617632 5.151437,-4.768957 5.151437,-5.61734 z"
     fill="url(#paint0_linear_14123_2392)"
     id="path12"
     style="fill:#808080;fill-opacity:1" />
  <path
     d="m 32.3166,8.6226367 c -3.15761,-0.04061 -5.7955,2.4223003 -6.009,5.5241603 v 21.60894 c 0,-1.694105 1.370698,-5.089401 5.0896,-5.5845 v -13.1418 c -1.0124,-0.3398 -1.7184,-1.2879 -1.7184,-2.42229 0,-1.41392 1.1657,-2.57575 2.5722,-2.57575 1.4065,0 2.5721,1.13443 2.5721,2.57575 0,1.10699 -0.7059,2.05509 -1.7184,2.42229 v 13.1692 c 2.8185,0.4275 5.036657,2.795726 5.096857,5.683826 L 38.1943,14.700317 C 38.1878,11.272294 35.393398,8.6622074 32.3166,8.6226367 Z"
     fill="url(#paint1_linear_14123_2392)"
     id="path13"
     style="fill:#828282;fill-opacity:1" />
</svg>
